<?xml version="1.0" standalone="no"?>
<!DOCTYPE svg PUBLIC "-//W3C//DTD SVG 20010904//EN"
 "http://www.w3.org/TR/2001/REC-SVG-20010904/DTD/svg10.dtd">
<svg version="1.0" xmlns="http://www.w3.org/2000/svg"
 width="400.000000pt" height="400.000000pt" viewBox="0 0 400.000000 400.000000"
 preserveAspectRatio="xMidYMid meet">
<metadata>
Created by potrace 1.14, written by Peter Selinger 2001-2017
</metadata>
<g transform="translate(0.000000,400.000000) scale(0.100000,-0.100000)"
fill="#000000" stroke="none">
<path d="M0 2798 l0 -1025 39 -40 c45 -48 51 -73 44 -166 -6 -71 -24 -97 -65
-97 -17 0 -18 -41 -18 -735 l0 -735 320 0 319 0 3 57 c2 36 8 57 16 59 7 1 8
0 2 -3 -11 -5 -14 -72 -4 -97 4 -11 19 -16 51 -16 l46 0 -7 53 c-12 86 -15
164 -20 552 -2 204 -7 390 -11 415 -3 25 -8 72 -9 105 -2 33 -4 68 -5 78 0 10
-9 17 -21 17 -26 0 -26 16 0 23 19 5 20 13 19 104 -1 54 -6 103 -11 110 -5 6
-9 20 -7 30 1 10 -2 33 -6 50 -7 29 -10 32 -33 26 -17 -4 -23 -2 -18 6 4 6 14
11 22 11 8 0 17 7 20 15 4 10 13 13 25 10 21 -7 69 21 69 41 0 8 10 14 24 14
28 0 82 39 54 40 -25 0 -190 -57 -197 -68 -3 -5 -23 -14 -44 -20 -21 -6 -35
-6 -32 -1 20 32 -136 -43 -192 -92 -19 -16 -41 -28 -49 -25 -23 9 -62 -11
-118 -59 l-53 -45 2 33 c0 17 7 42 13 55 8 14 10 36 6 60 -4 20 -9 31 -11 24
-3 -6 -9 -10 -14 -6 -12 7 -11 78 1 90 6 6 15 50 20 100 21 180 49 249 123
297 57 37 147 57 258 57 51 0 60 2 50 14 -9 11 -8 15 6 20 14 6 15 9 4 15 -9
6 -6 10 13 15 15 4 33 20 42 38 23 44 45 65 87 83 49 20 180 21 197 0 6 -8 22
-17 33 -21 23 -7 102 -58 124 -80 7 -7 27 -16 45 -19 18 -4 38 -11 43 -15 6
-4 24 -10 42 -13 18 -4 41 -14 53 -24 51 -45 127 -20 109 35 -4 15 -27 90 -50
167 l-42 141 -246 -2 c-139 -1 -263 2 -286 8 -53 13 -54 14 -173 28 -83 10
-109 17 -132 36 -23 20 -35 23 -67 18 -29 -4 -48 -1 -76 15 -21 12 -46 21 -56
21 -28 0 -57 36 -42 54 6 7 8 22 4 31 -4 11 -3 16 4 12 5 -4 15 5 21 18 7 14
17 25 24 25 7 1 28 21 46 45 18 25 41 45 50 45 35 0 52 24 63 88 7 41 16 62
25 62 8 0 14 5 14 11 0 5 5 7 11 4 6 -4 30 -2 55 5 38 11 49 10 81 -5 21 -10
42 -24 46 -31 4 -8 16 -14 27 -14 14 0 21 -13 31 -51 7 -28 19 -54 27 -56 7
-3 44 4 83 16 38 13 95 25 127 28 38 3 78 16 118 38 62 34 200 80 266 89 35 5
38 4 43 -22 4 -15 10 -45 15 -67 5 -22 9 -81 9 -130 0 -142 28 -233 67 -218
10 4 12 0 8 -11 -3 -9 -2 -22 4 -29 5 -6 12 -55 14 -108 4 -90 15 -129 38
-129 4 0 10 15 13 33 8 50 34 112 49 115 7 1 54 -37 103 -86 50 -49 98 -91
108 -95 13 -5 17 -18 17 -50 0 -52 9 -62 75 -78 56 -13 81 -29 46 -29 -12 0
-19 -4 -16 -10 3 -5 40 -10 81 -10 41 0 74 -4 74 -9 0 -4 -10 -19 -22 -33 -23
-24 -36 -73 -19 -66 16 6 101 88 101 98 0 5 14 18 30 30 17 12 30 26 30 31 0
6 20 41 45 80 39 59 50 69 75 69 39 0 50 -23 50 -101 0 -35 5 -89 12 -121 14
-66 9 -76 -44 -87 -24 -5 -46 -1 -83 16 -59 27 -115 32 -95 8 7 -8 24 -15 39
-15 15 0 37 -7 49 -16 20 -14 21 -17 7 -30 -23 -23 -18 -30 20 -30 19 0 35 3
35 7 0 4 9 5 20 2 11 -3 20 -10 20 -15 0 -15 27 -38 44 -38 21 0 31 -20 15
-32 -10 -7 -7 -8 11 -4 14 3 29 6 33 6 5 0 6 4 2 9 -3 6 6 6 24 1 43 -12 51
-19 51 -40 0 -32 17 -31 24 1 7 37 1 49 -23 49 -27 0 -100 57 -112 87 -11 30
-4 59 16 67 17 6 137 -54 175 -87 14 -13 37 -27 51 -31 13 -3 51 -32 84 -63
33 -31 53 -53 45 -48 -8 5 6 -14 33 -41 26 -27 54 -62 62 -79 7 -16 39 -61 70
-100 31 -38 61 -79 67 -89 10 -18 7 -19 -28 -13 -21 4 -74 25 -118 47 -110 55
-125 65 -140 86 -19 28 -48 106 -37 100 5 -3 7 2 4 11 -3 10 -32 36 -66 58
-79 51 -77 51 -77 21 0 -17 -4 -24 -13 -20 -19 7 -57 -33 -57 -60 0 -73 8 -82
80 -100 37 -9 75 -16 85 -16 9 0 14 -4 11 -9 -4 -5 4 -7 16 -3 14 3 19 2 14
-6 -4 -7 -14 -12 -22 -12 -21 0 -17 -18 12 -47 21 -21 28 -23 35 -12 13 20 11
29 -6 29 -19 0 -19 14 -2 29 10 8 17 7 25 -1 7 -7 12 -9 12 -5 0 10 63 -22 72
-37 4 -6 6 -17 3 -23 -2 -7 3 -13 13 -13 15 0 15 -2 2 -10 -8 -5 -10 -10 -5
-10 6 0 16 5 23 12 9 9 12 7 12 -10 0 -12 5 -22 11 -22 6 0 8 7 5 16 -5 13 -1
15 19 10 14 -4 45 -9 70 -13 25 -3 45 -10 45 -14 0 -5 6 -9 14 -9 19 0 41 -38
44 -76 2 -23 -4 -40 -23 -60 -22 -23 -25 -35 -20 -62 4 -21 1 -39 -7 -49 -7
-9 -14 -54 -16 -114 l-4 -99 -37 -17 c-20 -9 -48 -29 -63 -45 -30 -31 -30 -32
6 -18 14 5 26 6 25 2 -2 -19 -38 -68 -57 -78 -27 -13 -18 -24 20 -24 18 0 36
9 50 25 16 19 24 22 35 14 16 -14 17 -39 2 -39 -8 0 -8 -5 1 -15 10 -12 10
-15 0 -15 -7 0 -18 -8 -25 -17 -9 -12 -25 -17 -51 -15 -35 2 -37 1 -21 -12 18
-14 17 -15 -5 -19 l-23 -4 23 -8 c12 -4 22 -11 22 -15 0 -14 -41 -23 -53 -11
-20 20 -29 11 -23 -21 4 -18 7 -44 7 -58 -1 -38 21 -114 36 -125 8 -6 14 -42
16 -101 3 -50 7 -97 11 -103 7 -10 78 -16 87 -7 2 3 3 25 1 50 -4 44 -5 45
-45 54 l-42 8 38 8 c22 4 37 13 37 21 0 19 8 19 25 1 9 -8 15 -38 16 -75 1
-34 6 -64 11 -67 4 -3 6 -9 4 -13 -3 -4 -5 -29 -5 -57 -1 -27 -1 -73 -1 -102
l-1 -52 52 0 52 0 -6 61 c-5 40 -3 58 3 54 6 -4 10 -12 9 -18 -1 -7 -1 -31 0
-54 l1 -43 420 0 420 0 0 735 c0 584 -3 735 -13 735 -6 0 -33 -11 -59 -25 -56
-30 -152 -34 -238 -10 -133 38 -169 44 -241 45 -60 0 -86 5 -125 25 -27 14
-56 25 -65 25 -9 0 -22 6 -28 14 -7 8 -28 17 -49 20 -42 8 -108 30 -169 57
-24 11 -46 19 -51 19 -10 0 -88 91 -124 145 -24 37 -26 44 -16 85 5 25 11 66
12 93 1 37 8 53 29 74 l27 28 171 2 170 2 39 40 c22 23 45 41 50 41 6 0 23 8
38 19 81 55 120 73 190 86 20 4 44 13 52 21 9 7 30 14 48 16 18 1 32 5 32 9 0
26 168 61 252 53 l68 -7 0 317 c0 254 -3 316 -13 316 -16 0 -67 52 -67 68 0 7
-3 12 -8 12 -13 0 -34 72 -59 200 -5 27 -65 88 -104 106 -220 102 -216 99
-268 189 -35 60 -61 85 -120 118 -41 24 -46 24 -85 11 -57 -20 -89 -48 -144
-128 -29 -42 -61 -76 -82 -87 -19 -10 -42 -31 -50 -45 -8 -15 -19 -26 -23 -25
-9 2 -47 -42 -47 -53 0 -7 -13 -24 -42 -57 -10 -10 -18 -21 -18 -24 0 -10 -40
-45 -51 -45 -6 0 -23 12 -38 28 -15 15 -42 38 -59 52 -18 14 -35 32 -37 41 -3
9 -19 22 -35 29 -17 7 -30 18 -30 25 0 22 -72 72 -130 91 -30 9 -68 28 -83 41
-33 26 -31 26 -152 28 -49 1 -107 6 -128 10 -21 4 -43 3 -50 -3 -6 -5 -37 -10
-67 -11 -30 -1 -73 -10 -95 -21 -30 -14 -52 -17 -89 -13 -34 4 -50 2 -56 -7
-7 -11 -11 -11 -24 -1 -10 8 -16 9 -16 3 0 -17 -79 -29 -135 -21 -27 4 -79 8
-114 8 -56 1 -77 8 -169 52 -57 28 -114 60 -126 71 -17 16 -30 19 -68 14 -26
-3 -60 -1 -75 4 -73 22 -371 83 -408 82 -5 0 -67 -3 -136 -7 -120 -8 -214 2
-244 25 -17 13 -188 72 -222 77 l-33 5 0 -1024z m2367 736 c-3 -3 -12 -4 -19
-1 -8 3 -5 6 6 6 11 1 17 -2 13 -5z m-74 -121 c-7 -2 -19 -2 -25 0 -7 3 -2 5
12 5 14 0 19 -2 13 -5z m214 1 c-3 -3 -12 -4 -19 -1 -8 3 -5 6 6 6 11 1 17 -2
13 -5z m-135 -356 c-7 -7 -12 -8 -12 -2 0 14 12 26 19 19 2 -3 -1 -11 -7 -17z
m-492 -224 c0 -12 -7 -24 -15 -28 -8 -3 -15 -10 -15 -16 0 -6 4 -8 10 -5 5 3
23 -1 40 -10 25 -13 30 -13 30 -1 0 7 -7 16 -15 20 -8 3 -15 17 -15 30 l0 25
26 -24 c15 -14 31 -22 37 -18 6 4 3 11 -7 19 -30 22 -1 24 53 4 28 -11 64 -20
80 -20 25 0 28 -3 23 -25 -3 -16 0 -25 8 -25 7 0 10 7 6 15 -3 8 -1 15 4 15 5
0 12 -9 15 -20 4 -11 11 -18 16 -14 6 3 22 3 36 -1 21 -5 24 -10 20 -33 -14
-70 -15 -67 30 -64 22 2 44 -2 48 -7 3 -6 15 -11 25 -11 10 0 26 -7 34 -16 15
-14 16 -14 16 0 0 18 8 20 28 8 7 -5 10 -16 6 -25 -4 -13 -1 -17 14 -17 11 0
22 -4 24 -10 2 -5 12 -11 24 -13 11 -1 33 -13 49 -25 15 -12 32 -22 36 -22 5
0 9 -20 9 -45 0 -25 -4 -45 -10 -45 -5 0 -10 8 -10 18 -1 15 -2 15 -13 1 -20
-27 -50 -37 -94 -33 -23 2 -45 -1 -48 -6 -4 -6 -10 -8 -15 -5 -5 3 -20 0 -32
-7 -13 -7 -27 -11 -33 -9 -12 3 -92 12 -120 13 -11 0 -49 6 -85 14 -36 7 -100
16 -142 19 -71 5 -78 4 -93 -17 -14 -21 -14 -23 2 -27 9 -2 27 -10 40 -18 17
-11 23 -12 23 -3 0 8 8 10 28 5 15 -5 52 -14 82 -21 l55 -12 -75 -1 c-56 -1
-71 2 -60 10 12 8 9 9 -10 4 -14 -3 -40 -8 -59 -11 -18 -2 -41 -9 -50 -14 -14
-7 -38 7 -112 64 -128 99 -146 147 -61 162 20 3 49 11 64 17 23 10 26 16 23
47 -2 19 -4 38 -4 43 -1 4 -8 7 -16 7 -18 0 -20 16 -2 23 8 3 6 9 -7 19 -18
14 -17 17 20 55 31 31 43 38 59 32 31 -12 34 -11 28 11 -4 16 -2 19 11 14 13
-5 16 1 16 27 0 26 3 30 10 19 5 -8 10 -25 10 -36z m970 -84 c-6 -12 -9 -24
-6 -27 3 -3 11 6 17 21 8 17 18 25 28 22 9 -3 48 -8 86 -11 108 -9 137 -15
178 -38 67 -37 92 -118 59 -183 -38 -74 -81 -99 -194 -110 -32 -4 -57 0 -80
11 -33 17 -98 81 -98 97 0 4 -9 8 -20 8 -11 0 -20 -5 -20 -12 0 -6 -2 -9 -5
-7 -6 7 31 208 45 244 7 17 14 25 17 18 2 -7 -1 -22 -7 -33z m-1107 -107 c-7
-2 -19 -2 -25 0 -7 3 -2 5 12 5 14 0 19 -2 13 -5z m-193 -145 c0 -6 -9 -1 -20
12 -11 13 -20 27 -20 32 0 4 9 -1 20 -12 11 -11 20 -25 20 -32z m814 -184 c4
-11 -4 -14 -34 -14 -42 0 -52 12 -24 28 21 12 51 4 58 -14z m376 -18 c0 8 12
6 33 -5 l34 -16 -14 -55 c-18 -67 -26 -76 -81 -89 -39 -8 -43 -7 -37 7 3 10
13 46 21 82 21 93 23 98 34 80 6 -8 10 -10 10 -4z m-794 -24 c6 -8 18 -13 26
-10 21 9 47 -9 30 -20 -11 -7 -11 -10 0 -18 41 -30 63 -34 115 -20 44 12 54
12 63 1 19 -23 69 9 70 44 0 11 -4 11 -22 -1 -13 -8 -41 -18 -63 -22 l-40 -7
25 21 c32 27 64 40 97 40 22 0 24 -3 18 -27 -3 -16 -19 -48 -34 -73 -23 -37
-33 -46 -62 -48 -34 -3 -34 -3 -11 13 12 9 22 20 22 26 0 17 -40 9 -71 -13
-27 -20 -28 -23 -12 -30 34 -15 -164 1 -201 16 -34 14 -36 17 -36 62 l0 48 34
-33 c29 -28 34 -30 40 -15 5 12 -3 27 -24 49 -16 17 -30 33 -30 37 0 11 55 -6
66 -20z m691 -78 c-3 -3 -12 -4 -19 -1 -8 3 -5 6 6 6 11 1 17 -2 13 -5z m-114
-71 c-7 -2 -21 -2 -30 0 -10 3 -4 5 12 5 17 0 24 -2 18 -5z m43 -61 c15 -10
14 -42 -2 -42 -12 0 -34 29 -34 44 0 8 23 7 36 -2z m-16 -399 c0 -43 -8 -40
-14 5 -2 18 1 32 5 32 5 0 9 -16 9 -37z m-2010 -78 c-7 -8 -19 -15 -27 -15 -8
0 -31 -16 -49 -34 -39 -39 -91 -64 -64 -31 8 10 33 29 55 43 22 14 46 31 53
39 7 7 20 13 29 13 13 0 13 -3 3 -15z m65 -25 c3 -5 -1 -10 -9 -10 -8 0 -18 5
-21 10 -3 6 1 10 9 10 8 0 18 -4 21 -10z m-21 -110 c-3 -19 -1 -47 5 -62 6
-16 8 -42 4 -59 l-6 -31 -13 23 c-7 13 -13 47 -14 76 0 28 -5 55 -10 58 -9 6
-6 38 7 75 9 26 32 -42 27 -80z m-129 -20 c-3 -11 -1 -29 6 -42 7 -12 13 -37
15 -56 l2 -33 -19 25 c-12 15 -19 40 -19 64 0 23 -5 44 -10 47 -7 4 -6 13 1
27 10 19 12 20 21 4 5 -9 6 -25 3 -36z m-155 31 c0 -6 -4 -13 -10 -16 -5 -3
-10 -14 -10 -24 0 -10 -12 -28 -26 -42 l-26 -24 7 25 c4 14 13 32 20 40 6 8
15 23 18 33 7 18 27 24 27 8z m50 -41 c0 -20 -5 -30 -15 -30 -15 0 -21 40 -8
53 14 15 23 6 23 -23z m2995 -98 c6 -45 8 -82 4 -82 -9 0 -24 59 -20 78 1 8
-5 25 -14 39 -18 26 -13 57 7 51 8 -3 17 -38 23 -86z m-138 46 c-3 -8 -6 -5
-6 6 -1 11 2 17 5 13 3 -3 4 -12 1 -19z m237 6 c19 -18 21 -44 4 -44 -14 0
-58 40 -58 52 0 14 38 9 54 -8z m-3224 -39 c0 -8 -14 -29 -31 -47 -35 -38 -33
-13 4 32 26 34 27 34 27 15z m137 -17 c-3 -8 -6 -5 -6 6 -1 11 2 17 5 13 3 -3
4 -12 1 -19z m2943 -17 c0 -5 -6 -14 -14 -20 -9 -8 -12 -29 -9 -72 3 -47 1
-60 -9 -57 -7 3 -13 14 -13 25 -1 11 -6 27 -12 34 -6 8 -14 29 -18 47 -6 28
-4 32 14 32 11 0 23 5 26 10 8 12 35 13 35 1z m147 -23 c24 -22 31 -48 12 -48
-15 0 -53 21 -61 34 -26 38 12 49 49 14z m-2837 -30 c0 -4 8 -9 18 -9 15 -1
15 -2 -1 -6 -15 -4 -18 -11 -13 -31 19 -83 29 -164 27 -215 -1 -35 3 -65 10
-73 9 -11 9 -18 1 -26 -18 -18 -15 -98 3 -98 8 0 15 -7 15 -15 0 -8 -7 -15
-15 -15 -31 0 -15 -95 18 -104 28 -7 12 -24 -28 -30 -17 -2 -24 -1 -17 1 16 6
15 29 -2 89 -32 111 -39 141 -41 171 -1 27 1 31 12 21 12 -10 14 5 10 100 -3
71 -9 118 -18 128 -10 13 -10 17 0 24 13 7 13 19 -3 110 -4 24 -4 24 10 6 8
-11 14 -23 14 -28z m-364 6 c-4 -9 -9 -15 -11 -12 -3 3 -3 13 1 22 4 9 9 15
11 12 3 -3 3 -13 -1 -22z m324 6 c0 -5 -7 -10 -16 -10 -8 0 -12 5 -9 10 3 6
10 10 16 10 5 0 9 -4 9 -10z m-250 -15 c0 -16 -27 -32 -37 -22 -3 4 -3 13 0
22 8 20 37 20 37 0z m194 -11 c4 -10 1 -14 -6 -12 -15 5 -23 28 -10 28 5 0 13
-7 16 -16z m-384 -38 c0 -15 -18 -31 -26 -23 -7 7 7 37 17 37 5 0 9 -6 9 -14z
m278 -39 c-7 -14 -13 -17 -16 -9 -6 19 6 44 18 37 7 -4 6 -14 -2 -28z m-222
-15 c-14 -14 -16 -14 -16 -1 0 20 23 44 29 28 2 -6 -4 -18 -13 -27z m64 -7 c0
-8 -4 -15 -10 -15 -5 0 -10 7 -10 15 0 8 5 15 10 15 6 0 10 -7 10 -15z m308
-30 c-3 -3 -9 2 -12 12 -6 14 -5 15 5 6 7 -7 10 -15 7 -18z m2902 -1 c0 -8 -4
-14 -10 -14 -5 0 -10 9 -10 21 0 11 5 17 10 14 6 -3 10 -13 10 -21z m-70 -31
l-1 -38 -15 28 c-15 27 -12 47 7 47 5 0 9 -17 9 -37z m264 15 c18 -28 33 -111
16 -88 -18 24 -50 88 -50 100 0 18 19 11 34 -12z m-3584 -2 c0 -15 -18 -31
-26 -23 -7 7 7 37 17 37 5 0 9 -6 9 -14z m3217 -8 c-3 -8 -6 -5 -6 6 -1 11 2
17 5 13 3 -3 4 -12 1 -19z m-3144 -15 c-3 -10 -13 -27 -21 -38 -13 -19 -14
-19 -7 5 7 24 23 50 31 50 2 0 1 -8 -3 -17z m213 -10 c-10 -10 -19 5 -10 18 6
11 8 11 12 0 2 -7 1 -15 -2 -18z m-161 -33 c0 -7 -6 -15 -12 -17 -8 -3 -13 4
-13 17 0 13 5 20 13 18 6 -3 12 -11 12 -18z m391 -25 c-6 -17 -26 -12 -26 6 0
6 5 7 10 4 6 -3 10 -1 10 6 0 7 3 10 6 6 4 -3 4 -13 0 -22z m-106 5 c0 -5 -4
-10 -10 -10 -5 0 -10 5 -10 10 0 6 5 10 10 10 6 0 10 -4 10 -10z m2867 -6 c2
-6 -8 -16 -22 -22 -34 -16 -35 -15 -35 7 0 27 49 39 57 15z m81 -6 c16 -16 15
-38 -2 -38 -13 0 -26 20 -26 41 0 13 14 11 28 -3z m-3126 -40 c-7 -7 -12 -8
-12 -2 0 14 12 26 19 19 2 -3 -1 -11 -7 -17z m3248 12 c0 -5 -2 -10 -4 -10 -3
0 -8 5 -11 10 -3 6 -1 10 4 10 6 0 11 -4 11 -10z m-3473 -42 c-3 -8 -6 -5 -6
6 -1 11 2 17 5 13 3 -3 4 -12 1 -19z m3393 -25 c6 -27 14 -54 16 -60 2 -7 0
-13 -4 -13 -13 0 -42 68 -42 95 0 41 17 28 30 -22z m-3330 12 c0 -8 -4 -15
-10 -15 -5 0 -10 7 -10 15 0 8 5 15 10 15 6 0 10 -7 10 -15z m294 -26 c-3 -5
-10 -7 -15 -3 -5 3 -7 10 -3 15 3 5 10 7 15 3 5 -3 7 -10 3 -15z m2898 -4 c0
-5 -5 -11 -11 -13 -6 -2 -11 4 -11 13 0 9 5 15 11 13 6 -2 11 -8 11 -13z
m-3299 -60 c-3 -9 -8 -14 -10 -11 -3 3 -2 9 2 15 9 16 15 13 8 -4z m57 -30 c0
-8 -4 -15 -10 -15 -5 0 -10 7 -10 15 0 8 5 15 10 15 6 0 10 -7 10 -15z m287
-17 c-3 -8 -6 -5 -6 6 -1 11 2 17 5 13 3 -3 4 -12 1 -19z m223 -18 c0 -5 -5
-10 -11 -10 -5 0 -7 5 -4 10 3 6 8 10 11 10 2 0 4 -4 4 -10z m-95 -29 c3 -5 1
-12 -5 -16 -5 -3 -10 1 -10 9 0 18 6 21 15 7z m72 -23 c-3 -8 -6 -5 -6 6 -1
11 2 17 5 13 3 -3 4 -12 1 -19z m2808 -29 c-4 -5 -18 -9 -33 -9 l-27 0 25 14
c26 13 44 11 35 -5z m-3335 2 c0 -6 -4 -13 -10 -16 -5 -3 -10 1 -10 9 0 9 5
16 10 16 6 0 10 -4 10 -9z m290 -5 c0 -3 -4 -8 -10 -11 -5 -3 -10 -1 -10 4 0
6 5 11 10 11 6 0 10 -2 10 -4z m220 -16 c0 -5 -5 -12 -11 -16 -14 -8 -33 11
-25 25 7 11 36 4 36 -9z m2538 -49 c21 -13 -13 -22 -42 -11 -13 5 -26 6 -29 4
-3 -3 -8 -1 -12 5 -8 13 63 15 83 2z m-21 -57 c-3 -3 -12 -4 -19 -1 -8 3 -5 6
6 6 11 1 17 -2 13 -5z m-2369 -28 c3 -3 -4 -6 -16 -6 -11 0 -28 -3 -36 -6 -11
-4 -15 -2 -11 8 6 14 50 17 63 4z m2502 -26 c-8 -5 -19 -10 -25 -10 -5 0 -3 5
5 10 8 5 20 10 25 10 6 0 3 -5 -5 -10z m-2550 -105 c0 -8 -7 -15 -15 -15 -13
0 -14 3 -3 15 16 18 18 18 18 0z m-60 -65 c0 -5 -4 -10 -10 -10 -5 0 -10 5
-10 10 0 6 5 10 10 10 6 0 10 -4 10 -10z m-26 -33 c-3 -9 -12 -17 -20 -17 -17
0 -19 37 -1 43 18 7 29 -7 21 -26z m86 -32 c0 -8 -4 -15 -10 -15 -5 0 -10 7
-10 15 0 8 5 15 10 15 6 0 10 -7 10 -15z m2495 -23 c-3 -3 -11 0 -18 7 -9 10
-8 11 6 5 10 -3 15 -9 12 -12z m25 -42 c0 -5 -2 -10 -4 -10 -3 0 -8 5 -11 10
-3 6 -1 10 4 10 6 0 11 -4 11 -10z"/>
<path d="M2156 2731 c-3 -4 6 -6 19 -3 14 2 25 6 25 8 0 8 -39 4 -44 -5z"/>
<path d="M1340 2541 c-11 -22 -13 -52 -4 -75 7 -19 24 -11 24 11 0 9 10 27 22
40 19 20 20 25 8 33 -23 15 -38 12 -50 -9z"/>
<path d="M1421 2413 c-18 -15 -21 -24 -16 -46 4 -15 10 -26 14 -25 48 25 71
46 69 63 -4 27 -39 31 -67 8z"/>
<path d="M3930 2170 c-14 -4 -54 -8 -90 -9 -36 -1 -81 -6 -101 -11 -34 -10
-93 -51 -95 -67 0 -5 -8 -23 -16 -42 -25 -56 -7 -194 23 -175 8 5 13 -9 10
-28 -1 -13 88 -40 114 -34 14 4 63 2 109 -4 46 -6 91 -7 100 -4 14 5 16 30 16
195 l0 189 -22 -1 c-13 -1 -34 -5 -48 -9z"/>
<path d="M1409 2082 c-18 -19 -32 -76 -21 -86 10 -11 42 -99 42 -118 0 -9 8
-24 17 -33 9 -10 17 -31 17 -49 1 -26 5 -31 24 -29 25 3 27 0 10 -26 -9 -15
-9 -26 0 -46 12 -26 14 -26 31 -11 20 19 37 21 46 5 4 -6 -2 -17 -14 -25 -23
-17 -28 -53 -9 -72 10 -10 18 -6 39 20 l27 32 46 -42 c71 -65 123 -125 130
-150 5 -15 1 -30 -15 -50 -12 -15 -19 -19 -16 -10 3 9 -1 22 -8 28 -11 9 -19
6 -39 -15 -21 -23 -23 -30 -14 -51 6 -13 15 -24 20 -24 22 0 3 -31 -50 -82
-47 -46 -66 -58 -100 -62 -31 -4 -42 -1 -42 9 0 7 9 17 20 20 23 7 26 24 8 47
-9 12 -19 14 -35 8 -18 -8 -21 -15 -17 -57 8 -96 8 -95 69 -88 52 7 54 6 69
-24 9 -17 16 -33 16 -36 -2 -54 -1 -55 40 -55 50 0 52 -15 3 -27 -36 -9 -38
-11 -35 -44 2 -18 5 -36 7 -37 2 -2 22 -6 45 -9 l42 -6 -6 108 c-4 59 -9 111
-11 115 -2 4 -18 5 -36 2 -22 -3 -30 -1 -25 7 4 6 18 11 31 11 13 0 25 6 28
13 3 9 9 9 23 1 13 -7 20 -24 22 -50 5 -72 10 -84 40 -85 24 -2 25 -2 4 -6
-29 -6 -36 -23 -28 -68 7 -37 22 -42 74 -29 31 9 33 79 2 87 -23 6 -27 27 -5
27 18 0 19 23 4 52 -6 11 -8 22 -5 25 9 9 47 -28 57 -54 5 -13 15 -23 24 -23
8 0 15 -7 15 -15 0 -8 -7 -15 -15 -15 -19 0 -10 -57 14 -83 14 -17 14 -19 -1
-28 -24 -13 -25 -205 -1 -231 15 -17 15 -18 0 -18 -27 0 -22 -64 6 -90 20 -19
20 -22 6 -31 -14 -7 -15 -16 -9 -46 5 -20 16 -40 24 -45 19 -11 21 -28 4 -28
-10 0 -13 -46 -14 -195 l-1 -195 76 0 77 0 -4 129 c-3 105 -1 129 11 134 12 4
16 -8 21 -56 9 -94 10 -182 2 -195 -5 -9 23 -12 106 -12 l113 0 -6 142 c-3 79
-7 144 -8 146 0 1 -13 2 -28 2 l-28 0 23 18 c22 17 23 24 18 73 -7 60 4 93 26
71 6 -6 21 -12 33 -12 52 1 74 62 35 98 -17 16 -18 21 -7 31 10 7 13 26 10 59
-3 30 0 53 9 64 12 16 15 16 33 1 14 -10 16 -17 8 -20 -13 -5 -18 -60 -7 -87
3 -9 12 -16 20 -16 18 0 18 -16 0 -23 -19 -7 -10 -74 12 -99 11 -14 12 -18 2
-18 -19 0 -6 -81 16 -97 14 -10 15 -16 6 -25 -19 -19 -15 -95 6 -107 12 -7 13
-13 6 -18 -21 -15 -27 -72 -10 -98 10 -15 12 -26 6 -30 -6 -3 -10 -17 -10 -31
0 -22 4 -24 51 -24 l50 0 -6 53 c-3 28 -8 90 -10 137 -6 135 -16 214 -28 228
-6 8 -12 35 -13 60 -1 26 -7 76 -13 112 -12 71 -16 94 -26 188 -5 42 -4 62 3
62 17 0 26 -21 34 -80 11 -75 25 -164 38 -230 5 -30 15 -109 21 -175 6 -66 13
-127 17 -135 3 -8 4 -19 3 -25 -2 -5 -4 -52 -6 -102 l-3 -93 52 0 53 0 1 92
c0 51 -4 98 -10 105 -5 7 -6 18 -2 25 5 7 7 21 6 30 -2 10 2 26 8 35 10 17 10
16 7 -2 -2 -11 3 -32 10 -48 9 -18 12 -43 7 -75 -4 -36 -2 -52 8 -63 12 -11
12 -17 3 -26 -6 -6 -10 -25 -7 -42 4 -30 6 -31 54 -31 l51 0 -7 37 c-3 21 -8
81 -11 133 -10 199 -15 254 -27 261 -7 5 -13 41 -14 98 -3 112 -17 161 -47
161 -54 -1 -76 -61 -37 -100 11 -11 15 -22 10 -25 -13 -8 -13 -66 1 -120 6
-25 9 -51 6 -60 -8 -20 -37 -8 -37 15 0 11 -5 22 -11 25 -6 4 -7 19 -4 36 10
44 -3 89 -26 89 -23 0 -25 16 -3 28 14 8 15 14 5 42 -6 18 -19 39 -28 46 -15
10 -16 15 -5 25 19 20 15 77 -7 91 -15 9 -17 15 -9 25 6 7 11 23 12 35 2 33
20 32 33 -2 6 -16 18 -30 27 -30 21 0 20 -10 0 -25 -14 -10 -15 -17 -4 -49 11
-36 13 -37 53 -34 41 3 42 3 39 38 -4 41 -20 63 -38 56 -7 -3 -16 -1 -19 3 -2
5 7 11 20 14 14 2 28 0 31 -4 14 -23 34 -7 34 26 0 30 4 35 28 41 46 10 53 14
47 23 -3 6 -18 6 -38 0 -17 -5 -44 -7 -58 -4 -14 3 -53 1 -85 -4 -139 -24
-141 -24 -119 -6 11 8 25 13 31 11 7 -3 18 2 25 11 11 13 9 14 -20 10 -18 -3
-40 -12 -49 -19 -34 -28 -79 -40 -166 -44 -49 -2 -91 -5 -93 -8 -9 -9 10 -56
23 -56 24 0 64 23 64 37 0 20 54 13 58 -8 1 -8 -2 -28 -8 -44 -10 -26 -12 -27
-24 -10 -10 14 -21 16 -49 11 -20 -4 -38 -10 -41 -14 -10 -16 8 -64 26 -71 18
-6 18 -8 4 -20 -9 -7 -13 -17 -10 -23 8 -13 -6 -108 -17 -108 -5 0 -9 8 -9 18
0 9 -5 34 -11 55 -9 33 -13 36 -34 31 -16 -4 -25 -2 -25 6 0 6 10 14 21 17 19
5 21 11 15 52 -14 102 -20 158 -20 191 l-1 35 65 7 c36 4 76 9 90 12 29 7 93
36 100 47 3 4 45 14 95 23 66 11 93 20 105 35 8 11 30 24 48 27 34 7 40 16 20
31 -24 19 -183 37 -324 37 -139 1 -141 0 -208 -33 -65 -32 -68 -32 -87 -15
-13 12 -19 28 -17 48 3 29 8 34 111 108 11 9 14 18 8 26 -6 11 -17 11 -45 4
-28 -8 -38 -8 -40 1 -2 7 -9 32 -15 57 -7 25 -18 79 -26 120 -13 75 -19 80
-24 19 -2 -24 -84 -16 -112 10 -13 12 -28 21 -34 21 -6 0 -18 11 -25 25 -7 14
-24 32 -37 40 -12 9 -23 22 -23 29 0 9 -10 12 -31 10 -17 -2 -40 3 -52 11 -12
8 -29 15 -38 15 -15 0 -32 22 -26 36 1 3 -6 10 -15 15 -10 6 -18 17 -18 24 0
8 -5 15 -11 15 -13 0 -39 25 -39 38 0 5 -11 17 -25 26 -33 22 -32 12 10 -71
34 -67 95 -136 158 -178 16 -10 26 -24 23 -31 -4 -9 3 -14 17 -15 16 -1 17 -3
5 -6 -13 -3 -16 -12 -12 -40 l4 -35 -24 19 c-13 10 -41 32 -62 48 -47 37 -184
174 -222 224 -52 67 -56 90 -28 152 29 61 32 94 12 158 -12 41 -36 68 -36 42
0 -16 -56 -13 -70 4 -15 19 -21 18 -41 -3z m515 -481 c4 -5 -3 -7 -14 -4 -23
6 -26 13 -6 13 8 0 17 -4 20 -9z m-33 -221 c23 -13 25 -40 2 -40 -18 0 -53 28
-53 42 0 11 27 10 51 -2z m74 -70 c3 -6 0 -10 -7 -10 -15 0 -38 19 -38 32 0
10 36 -8 45 -22z m209 -1 c5 -5 4 -14 -3 -23 -7 -8 -10 -20 -6 -26 3 -5 0 -13
-8 -16 -15 -5 -116 54 -117 68 0 8 77 16 105 10 11 -2 24 -8 29 -13z m-272
-141 c-7 -7 -12 -8 -12 -2 0 14 12 26 19 19 2 -3 -1 -11 -7 -17z m186 -18 c-7
-10 -14 -17 -17 -15 -4 4 18 35 25 35 2 0 -1 -9 -8 -20z m-234 -25 c3 -10 -1
-15 -14 -15 -20 0 -33 13 -23 24 11 11 31 6 37 -9z m552 -67 c5 -41 3 -58 -5
-58 -6 0 -12 10 -12 23 -1 20 -2 20 -6 2 -9 -36 -22 -39 -33 -10 -14 37 -9 91
8 88 6 -2 12 7 12 19 0 46 29 -6 36 -64z m82 70 c14 -18 19 -73 7 -73 -5 0 -8
6 -7 13 2 9 -4 12 -15 10 -18 -3 -20 -8 -22 -57 0 -13 -3 -22 -6 -19 -9 9 -26
118 -20 128 9 14 51 12 63 -2z m122 -7 c0 -11 5 -23 10 -26 15 -9 12 -25 -4
-25 -17 0 -21 5 -30 43 -5 20 -3 27 9 27 8 0 15 -9 15 -19z m-326 -55 c3 -13
8 -31 12 -39 3 -8 -2 -17 -10 -20 -10 -4 -13 -1 -9 8 3 8 0 28 -5 45 -6 16 -7
30 -3 30 5 0 12 -11 15 -24z m-81 -27 c3 -12 10 -18 16 -15 18 11 23 -15 6
-28 -22 -16 -12 -72 16 -86 23 -13 25 -30 4 -30 -22 0 -19 -52 6 -84 11 -14
16 -26 10 -26 -6 0 -11 -21 -11 -50 0 -36 5 -52 18 -59 13 -9 14 -12 4 -19 -8
-6 -12 -23 -10 -43 3 -31 6 -34 43 -40 l40 -6 -30 -13 -31 -13 0 -101 c0 -130
-6 -152 -39 -151 -36 2 -42 13 -11 24 29 11 31 26 15 84 -9 32 -13 36 -25 26
-8 -6 -17 -9 -20 -6 -9 9 5 27 22 27 17 0 17 25 3 130 -6 41 -12 101 -13 133
-2 32 -8 63 -14 69 -6 6 -8 16 -6 23 6 16 -14 95 -24 95 -4 0 -6 20 -4 44 2
25 -1 52 -6 62 -12 22 4 74 23 74 7 0 15 -9 18 -21z m-91 -65 c8 -17 9 -31 2
-42 -6 -10 -6 -37 -2 -67 4 -27 14 -110 20 -184 9 -89 17 -136 25 -138 10 -4
10 -8 -1 -18 -10 -10 -11 -26 -5 -67 5 -29 6 -60 4 -69 -3 -9 1 -22 10 -29 22
-19 19 -67 -5 -75 -55 -18 -85 31 -44 72 22 22 23 27 10 36 -11 9 -16 43 -21
132 -4 66 -8 147 -10 180 -2 40 -9 63 -20 71 -13 9 -13 13 -2 17 17 7 16 122
-1 139 -13 13 -16 51 -5 61 14 14 34 6 45 -19z m208 6 c0 -5 -4 -10 -10 -10
-5 0 -10 5 -10 10 0 6 5 10 10 10 6 0 10 -4 10 -10z m-297 -53 c3 -8 1 -20 -4
-28 -6 -10 -9 -7 -9 14 0 29 5 35 13 14z m797 -77 c0 -5 -2 -10 -4 -10 -3 0
-8 5 -11 10 -3 6 -1 10 4 10 6 0 11 -4 11 -10z m-790 -65 c0 -8 -4 -15 -10
-15 -5 0 -10 7 -10 15 0 8 5 15 10 15 6 0 10 -7 10 -15z m2 -137 c-10 -22 -11
-21 -11 12 -1 26 2 31 11 22 8 -8 8 -17 0 -34z m633 -88 c-3 -5 -11 -10 -16
-10 -6 0 -7 5 -4 10 3 6 11 10 16 10 6 0 7 -4 4 -10z m-615 -14 c0 -15 -18
-31 -26 -23 -7 7 7 37 17 37 5 0 9 -6 9 -14z m40 -6 c0 -5 -5 -10 -11 -10 -5
0 -7 5 -4 10 3 6 8 10 11 10 2 0 4 -4 4 -10z m120 -6 c0 -8 -5 -12 -10 -9 -6
4 -8 11 -5 16 9 14 15 11 15 -7z m370 -94 c0 -5 -5 -10 -11 -10 -5 0 -7 5 -4
10 3 6 8 10 11 10 2 0 4 -4 4 -10z m-520 -25 c0 -8 -7 -15 -15 -15 -16 0 -20
12 -8 23 11 12 23 8 23 -8z m730 -74 c0 -6 -4 -13 -10 -16 -5 -3 -10 1 -10 9
0 9 5 16 10 16 6 0 10 -4 10 -9z m-722 -52 c-2 -6 -8 -10 -13 -10 -5 0 -11 4
-13 10 -2 6 4 11 13 11 9 0 15 -5 13 -11z m240 -99 c19 0 23 -18 7 -34 -9 -9
-17 -38 -19 -71 -1 -31 -8 -61 -14 -67 -15 -15 -14 -20 -17 92 -3 102 1 123
20 97 7 -10 17 -17 23 -17z m-246 -42 c-9 -9 -12 -7 -12 12 0 19 3 21 12 12 9
-9 9 -15 0 -24z m175 10 c-3 -8 -6 -5 -6 6 -1 11 2 17 5 13 3 -3 4 -12 1 -19z
m-167 -128 c0 -5 -4 -10 -10 -10 -5 0 -10 5 -10 10 0 6 5 10 10 10 6 0 10 -4
10 -10z"/>
<path d="M1337 1980 c-3 -11 -1 -20 4 -20 5 0 9 9 9 20 0 11 -2 20 -4 20 -2 0
-6 -9 -9 -20z"/>
<path d="M1351 1911 c-13 -23 -14 -51 -3 -51 14 0 32 23 32 41 0 27 -18 32
-29 10z"/>
<path d="M1370 1831 c-12 -23 -3 -54 14 -48 14 5 21 67 7 67 -6 0 -15 -9 -21
-19z"/>
<path d="M1760 1820 c0 -5 5 -10 11 -10 5 0 7 5 4 10 -3 6 -8 10 -11 10 -2 0
-4 -4 -4 -10z"/>
<path d="M2080 1813 c0 -21 -61 -73 -84 -73 -9 0 -16 -4 -16 -9 0 -5 -12 -12
-27 -16 -19 -4 -34 0 -54 14 -16 12 -33 21 -38 21 -5 0 -13 9 -16 21 -7 21
-26 21 -33 0 -3 -8 1 -12 9 -9 18 6 39 -42 28 -64 -10 -18 11 -31 36 -22 13 5
13 8 0 21 -15 15 -20 33 -9 33 4 0 12 -7 18 -14 6 -8 17 -16 25 -18 24 -5 71
-50 64 -61 -4 -6 0 -8 10 -4 9 3 18 0 21 -9 3 -9 19 -14 42 -14 21 0 45 -7 55
-16 14 -12 22 -13 38 -4 25 13 26 28 6 76 -14 34 -35 39 -35 8 0 -9 -10 -14
-28 -14 -49 0 -72 43 -29 56 43 13 75 43 70 64 -4 15 0 20 16 20 18 0 20 2 9
14 -9 10 -15 11 -20 2 -6 -8 -13 -8 -28 2 -26 16 -30 15 -30 -5z"/>
<path d="M1290 1780 c0 -32 14 -40 24 -15 6 18 -2 45 -15 45 -5 0 -9 -13 -9
-30z"/>
<path d="M2420 1790 c-8 -5 -26 -10 -40 -11 -14 0 -19 -3 -12 -6 19 -7 82 6
82 17 0 13 -11 12 -30 0z"/>
<path d="M1155 1780 c-8 -13 35 -13 55 0 11 7 7 10 -17 10 -17 0 -35 -4 -38
-10z"/>
<path d="M2195 1780 c3 -5 21 -10 38 -9 31 1 31 1 7 9 -36 11 -52 11 -45 0z"/>
<path d="M1072 1754 c-31 -22 -27 -34 12 -34 35 0 63 21 51 40 -9 15 -37 12
-63 -6z"/>
<path d="M1870 1766 c0 -2 7 -6 15 -10 8 -3 15 -1 15 4 0 6 -7 10 -15 10 -8 0
-15 -2 -15 -4z"/>
<path d="M1405 1740 c-3 -10 -1 -29 6 -41 10 -20 12 -21 21 -5 11 19 3 66 -12
66 -5 0 -11 -9 -15 -20z"/>
<path d="M1226 1741 c-8 -13 3 -38 19 -45 19 -7 24 4 14 32 -9 23 -24 29 -33
13z"/>
<path d="M1312 1728 c-13 -13 -16 -41 -6 -51 12 -12 34 6 34 28 0 29 -13 38
-28 23z"/>
<path d="M891 1721 c-15 -10 2 -15 92 -27 38 -5 47 -3 47 9 0 23 -108 38 -139
18z"/>
<path d="M1152 1689 c-26 -10 -25 -32 2 -37 21 -5 69 26 61 38 -8 12 -32 12
-63 -1z"/>
<path d="M1444 1665 c-8 -33 12 -83 28 -67 12 12 3 78 -12 87 -5 3 -12 -6 -16
-20z"/>
<path d="M902 1660 c-52 -8 -61 -16 -69 -63 -5 -36 -5 -37 25 -37 39 0 65 25
58 55 -8 30 11 37 71 26 26 -5 51 -7 55 -5 3 2 9 0 13 -6 3 -5 19 -10 36 -10
35 0 41 27 7 34 -46 9 -154 13 -196 6z"/>
<path d="M1338 1638 c-8 -13 -18 -33 -22 -44 -7 -23 11 -74 26 -74 5 0 6 -15
3 -34 -6 -31 -5 -34 23 -39 17 -3 40 -4 51 -2 12 2 21 0 21 -6 0 -5 -11 -9
-25 -9 -24 0 -65 -31 -65 -49 0 -10 34 -21 68 -21 12 0 22 5 22 10 0 6 11 10
25 10 32 0 36 39 4 47 -14 4 -19 12 -16 24 7 27 -30 52 -56 37 -15 -7 -22 -7
-28 3 -5 9 1 17 22 26 33 14 35 21 15 48 -12 17 -14 17 -37 2 -29 -21 -39 -21
-39 -2 0 9 11 20 25 25 25 10 30 25 19 54 -8 22 -19 20 -36 -6z"/>
<path d="M1211 1628 c-19 -20 -23 -49 -8 -64 8 -8 47 24 47 39 0 6 7 19 17 29
15 17 15 18 -10 18 -14 0 -35 -10 -46 -22z"/>
<path d="M960 1590 c0 -32 16 -37 68 -24 30 8 28 20 -8 39 -45 23 -60 20 -60
-15z"/>
<path d="M750 1602 c0 -5 -11 -14 -23 -19 -18 -8 -24 -20 -25 -44 0 -18 2 -38
6 -43 4 -6 7 -27 8 -46 1 -32 6 -74 20 -167 4 -26 10 -33 27 -33 33 0 47 19
47 61 0 25 -5 39 -16 43 -18 7 -11 21 9 21 12 0 12 13 1 95 -9 66 -7 109 7
126 10 12 6 14 -25 14 -20 0 -36 -4 -36 -8z"/>
<path d="M1080 1590 c-12 -8 -12 -11 1 -27 21 -24 31 -53 19 -53 -6 0 -10 -11
-10 -25 0 -19 7 -26 28 -31 15 -3 33 -8 41 -10 10 -3 12 4 6 33 -4 21 -10 42
-13 48 -3 5 -5 23 -4 40 3 27 0 30 -25 32 -16 1 -35 -2 -43 -7z"/>
<path d="M1606 1585 c-20 -20 -20 -45 -2 -70 21 -29 46 -4 43 43 -2 40 -17 50
-41 27z"/>
<path d="M1492 1548 c2 -35 7 -43 23 -43 13 0 21 8 23 22 4 28 -14 63 -34 63
-12 0 -14 -10 -12 -42z"/>
<path d="M1217 1535 c-24 -18 -18 -51 8 -47 25 4 45 30 38 48 -7 18 -23 17
-46 -1z"/>
<path d="M873 1528 c-30 -8 -33 -12 -33 -48 0 -29 4 -40 15 -40 8 0 15 -5 15
-11 0 -5 -4 -8 -9 -4 -15 9 -30 -27 -20 -50 4 -11 8 -37 8 -57 1 -31 6 -40 31
-53 47 -24 60 -20 60 20 0 30 -3 35 -24 35 -35 0 -42 18 -12 30 22 8 26 16 26
50 0 35 -3 40 -22 41 l-23 0 23 16 c25 17 28 41 10 65 -10 12 -20 13 -45 6z"/>
<path d="M960 1513 c0 -16 7 -84 15 -153 8 -69 15 -171 15 -227 0 -83 3 -104
16 -111 15 -8 15 -10 0 -15 -17 -7 -20 -35 -10 -75 6 -20 12 -23 48 -20 40 3
41 4 39 37 -1 20 -8 38 -18 44 -15 8 -15 10 0 21 13 9 16 20 10 44 -3 18 -11
32 -16 32 -5 0 -9 7 -9 15 0 8 5 15 10 15 17 0 11 52 -7 73 -13 15 -15 21 -5
24 17 6 15 40 -5 75 -14 23 -15 32 -5 35 13 5 16 51 4 69 -4 6 -15 13 -24 17
-24 9 -23 24 2 32 41 13 18 76 -32 89 -26 6 -28 4 -28 -21z"/>
<path d="M1544 1486 c-8 -35 -1 -60 18 -64 22 -4 34 38 18 67 -14 28 -28 27
-36 -3z"/>
<path d="M1651 1483 c-13 -14 -13 -19 0 -42 8 -14 21 -26 29 -26 21 0 45 54
31 68 -17 17 -45 17 -60 0z"/>
<path d="M2373 1455 c-12 -8 -48 -21 -80 -29 -32 -8 -51 -15 -42 -15 9 -1 19
-10 22 -21 5 -20 27 -28 27 -10 0 6 8 10 18 10 10 0 22 3 26 7 11 11 36 12 36
1 0 -7 5 -6 14 1 11 9 15 8 20 -4 4 -11 12 -14 27 -10 22 7 39 -7 39 -33 0 -9
-10 -12 -27 -10 -20 2 -29 -2 -31 -15 -3 -17 1 -18 55 -12 32 4 62 11 67 15 4
4 22 4 39 -1 18 -5 54 -9 82 -9 28 0 64 -4 80 -9 34 -9 95 -3 95 10 0 5 -9 9
-19 9 -11 0 -26 6 -33 13 -23 22 -65 39 -99 41 -21 1 -34 7 -34 15 0 21 -67
38 -140 35 -38 -2 -75 1 -84 6 -14 8 -14 9 2 10 10 0 15 5 12 10 -9 15 -48 12
-72 -5z m224 -102 c-3 -10 -5 -2 -5 17 0 19 2 27 5 18 2 -10 2 -26 0 -35z"/>
<path d="M1211 1416 c0 -23 3 -49 5 -58 7 -24 46 -23 67 2 19 22 15 40 -9 40
-21 0 -17 18 7 25 31 10 5 35 -36 33 -33 -1 -34 -3 -34 -42z"/>
<path d="M1095 1410 c-13 -22 6 -70 31 -76 33 -8 58 2 50 22 -3 9 -6 27 -6 40
0 21 -5 24 -34 24 -19 0 -38 -5 -41 -10z"/>
<path d="M1598 1390 c-7 -16 -16 -30 -20 -30 -4 0 -5 -7 -2 -15 8 -21 38 -19
59 5 17 18 17 21 1 45 -9 14 -18 25 -20 25 -3 0 -10 -13 -18 -30z"/>
<path d="M2232 1365 c0 -16 2 -22 5 -12 2 9 2 23 0 30 -3 6 -5 -1 -5 -18z"/>
<path d="M1472 1351 c-17 -10 -5 -61 13 -61 43 0 57 26 29 54 -18 18 -24 19
-42 7z"/>
<path d="M1634 1312 c-25 -21 -29 -31 -21 -44 10 -15 13 -15 44 0 36 17 40 29
21 55 -12 15 -16 14 -44 -11z"/>
<path d="M1375 1317 c-13 -10 -16 -21 -11 -41 7 -30 37 -45 73 -38 21 4 23 8
17 41 -4 20 -9 39 -11 44 -7 12 -48 8 -68 -6z"/>
<path d="M1248 1313 c-20 -5 -21 -14 -12 -62 5 -23 12 -31 28 -31 43 0 66 12
66 34 -1 41 -41 70 -82 59z"/>
<path d="M2380 1310 c0 -5 5 -10 10 -10 6 0 10 5 10 10 0 6 -4 10 -10 10 -5 0
-10 -4 -10 -10z"/>
<path d="M1122 1293 c-6 -2 -10 -9 -6 -14 3 -5 0 -9 -5 -9 -17 0 -13 -40 4
-46 29 -12 80 -9 79 4 -1 6 -2 26 -2 42 -2 26 -6 30 -29 29 -16 0 -34 -3 -41
-6z"/>
<path d="M873 1233 c-7 -2 -13 -15 -13 -28 0 -44 10 -55 51 -55 39 0 39 0 39
39 0 46 -30 64 -77 44z"/>
<path d="M763 1223 c-18 -4 -23 -11 -23 -38 0 -54 7 -63 43 -56 29 6 32 11 35
45 3 35 -10 59 -28 54 -3 0 -15 -3 -27 -5z"/>
<path d="M1398 1203 c-44 -11 0 -96 46 -89 17 2 22 11 24 49 3 46 2 47 -25 46
-15 -1 -36 -3 -45 -6z"/>
<path d="M1263 1193 c-23 -4 -28 -20 -17 -60 7 -26 21 -28 59 -11 18 8 25 19
25 40 0 15 -4 28 -9 28 -5 0 -15 2 -23 4 -7 2 -23 1 -35 -1z"/>
<path d="M1115 1179 c-12 -19 4 -57 27 -63 50 -13 58 -8 58 34 0 40 0 40 -39
40 -22 0 -43 -5 -46 -11z"/>
<path d="M886 1107 c-14 -10 -16 -21 -11 -50 7 -34 10 -37 41 -37 l34 0 0 50
c0 46 -2 50 -23 50 -13 0 -31 -6 -41 -13z"/>
<path d="M750 1049 l0 -52 37 6 c50 8 58 19 47 59 -8 29 -14 33 -47 36 l-37 3
0 -52z"/>
<path d="M1406 1087 c-12 -9 -17 -23 -14 -42 2 -23 10 -30 43 -40 l40 -11 -37
-8 c-35 -6 -38 -9 -38 -42 0 -35 6 -41 49 -47 34 -5 39 -27 8 -27 -28 0 -57
-23 -57 -45 0 -35 13 -45 56 -45 51 0 49 -12 34 159 -14 156 -16 161 -43 161
-13 0 -31 -6 -41 -13z"/>
<path d="M1536 1093 c-16 -4 -18 -12 -12 -66 3 -34 9 -102 12 -150 7 -93 15
-105 62 -101 32 2 41 14 35 51 -3 21 -12 33 -27 37 -20 6 -20 7 -3 20 10 8 17
27 17 49 0 33 -3 37 -35 43 -44 8 -44 17 -2 29 29 9 32 13 29 45 -2 19 -5 36
-5 37 -6 6 -55 10 -71 6z"/>
<path d="M1133 1084 c-7 -3 -13 -21 -13 -40 0 -31 3 -34 28 -34 15 0 33 -5 40
-12 15 -15 25 9 20 54 -3 29 -7 33 -33 35 -16 1 -36 0 -42 -3z"/>
<path d="M1252 1043 c3 -38 3 -38 46 -37 23 0 44 3 46 5 2 2 2 18 -1 35 -4 28
-8 31 -50 33 l-44 2 3 -38z"/>
<path d="M896 985 c-14 -11 -17 -21 -12 -49 6 -33 10 -36 42 -36 l35 0 -3 48
c-2 38 -7 47 -23 49 -11 2 -28 -4 -39 -12z"/>
<path d="M1142 982 c-21 -3 -22 -7 -16 -35 7 -35 29 -56 59 -58 14 0 12 -3 -9
-9 -34 -10 -46 -25 -46 -58 0 -24 32 -42 77 -42 l25 0 -7 88 c-4 48 -8 94 -11
102 -4 15 -26 18 -72 12z"/>
<path d="M757 974 c-9 -10 8 -948 19 -965 3 -5 27 -9 55 -9 l49 0 0 44 c0 27
-6 51 -16 60 -8 9 -11 16 -5 16 7 0 11 24 11 60 0 55 -2 60 -22 60 l-23 0 24
19 c20 16 23 23 17 62 -3 24 -6 72 -5 107 0 48 -3 64 -15 68 -19 7 -22 25 -3
22 8 -2 13 12 15 39 3 34 -1 44 -17 53 -24 13 -28 30 -6 30 11 0 15 12 15 44
0 38 -3 45 -25 50 -32 8 -32 22 1 30 22 6 25 11 22 44 -3 32 -7 38 -35 47 -41
11 -42 21 -3 30 28 6 30 10 30 49 0 42 0 42 -38 44 -21 2 -41 0 -45 -4z"/>
<path d="M1260 935 c0 -43 1 -45 29 -45 48 0 61 9 61 45 0 36 -13 45 -61 45
-28 0 -29 -2 -29 -45z"/>
<path d="M2476 884 c-4 -10 -1 -14 6 -12 15 5 23 28 10 28 -5 0 -13 -7 -16
-16z"/>
<path d="M923 865 c-30 -13 -33 -18 -33 -55 l0 -41 43 3 42 3 -3 45 c-2 25 -7
48 -10 52 -4 4 -22 0 -39 -7z"/>
<path d="M1000 862 c0 -11 3 -34 6 -51 5 -25 11 -31 33 -31 42 0 53 13 49 56
-3 38 -4 39 -45 42 -37 3 -43 0 -43 -16z"/>
<path d="M1815 869 c-4 -6 -4 -26 -1 -45 7 -33 9 -34 51 -34 43 0 45 1 45 29
0 16 -7 37 -16 45 -18 18 -69 21 -79 5z"/>
<path d="M1264 855 c-4 -8 -3 -32 2 -53 4 -20 8 -48 9 -62 4 -78 4 -78 38 -83
50 -7 58 0 55 47 -3 37 -6 41 -33 44 -46 5 -55 22 -12 22 l37 0 0 44 c0 41 -2
44 -31 50 -47 9 -59 7 -65 -9z"/>
<path d="M1698 856 c-10 -7 -18 -26 -18 -42 0 -24 4 -29 28 -31 57 -5 68 3 64
47 -4 36 -7 40 -31 40 -14 0 -34 -7 -43 -14z"/>
<path d="M1175 761 c-26 -5 -30 -11 -33 -45 -4 -45 7 -56 61 -56 36 0 37 1 37
39 0 22 -3 46 -6 55 -6 17 -11 17 -59 7z"/>
<path d="M1827 763 c-4 -3 -5 -41 -2 -82 3 -42 7 -119 10 -171 2 -52 7 -108 9
-125 3 -16 6 -91 6 -165 1 -74 3 -154 7 -178 l5 -42 44 0 44 0 -1 123 c-1 129
-5 161 -20 152 -5 -4 -9 -1 -9 4 0 6 7 11 15 11 11 0 15 11 15 38 0 46 -10 63
-39 65 l-23 1 21 17 c27 22 28 73 1 96 -14 13 -16 19 -7 25 8 5 12 42 13 113
2 93 0 107 -16 115 -21 11 -63 13 -73 3z"/>
<path d="M1013 743 c-6 -15 3 -82 11 -90 3 -3 21 -2 41 1 34 7 35 8 35 51 0
36 -4 45 -17 46 -10 0 -29 2 -41 3 -13 2 -26 -3 -29 -11z"/>
<path d="M1552 713 c3 -45 5 -48 33 -51 42 -3 58 11 57 49 -1 37 -15 49 -60
49 l-33 0 3 -47z"/>
<path d="M1703 753 c-7 -2 -13 -20 -13 -38 0 -35 15 -45 72 -45 23 0 26 3 24
28 -2 15 -4 35 -5 45 -1 13 -9 17 -33 16 -18 0 -39 -3 -45 -6z"/>
<path d="M923 743 c-30 -4 -33 -7 -33 -38 0 -50 31 -75 74 -59 20 8 23 105 4
102 -7 0 -28 -3 -45 -5z"/>
<path d="M1423 743 c-14 -5 -17 -51 -5 -70 8 -12 24 -16 65 -14 25 1 27 4 27
46 l0 45 -37 -1 c-21 0 -44 -3 -50 -6z"/>
<path d="M1733 643 c-32 -4 -33 -6 -33 -47 0 -37 4 -45 23 -50 l22 -7 -21 -15
c-18 -13 -21 -22 -16 -57 3 -23 9 -45 15 -48 5 -4 6 -13 1 -20 -20 -33 -12
-109 11 -109 8 0 15 -4 15 -10 0 -5 -7 -10 -15 -10 -12 0 -14 -18 -14 -97 0
-54 3 -115 6 -135 5 -37 6 -38 48 -38 39 0 43 2 48 30 4 16 5 47 2 67 -2 21
-6 91 -9 156 -3 65 -8 122 -11 127 -3 4 -6 57 -6 117 -1 104 -10 155 -26 151
-5 0 -23 -3 -40 -5z"/>
<path d="M1167 632 c-13 -3 -17 -14 -17 -53 l0 -49 44 0 c25 0 48 5 51 11 4 6
4 30 1 53 -7 45 -17 49 -79 38z"/>
<path d="M1282 588 c3 -47 5 -52 28 -54 56 -5 70 5 70 51 0 46 -11 55 -73 55
-28 0 -28 -1 -25 -52z"/>
<path d="M1560 591 c0 -49 1 -51 28 -51 53 0 72 11 72 39 0 39 -13 52 -59 58
l-41 6 0 -52z"/>
<path d="M1038 623 c-14 -3 -18 -15 -18 -54 0 -44 2 -49 23 -49 12 0 33 3 46
7 21 5 23 10 18 45 -3 22 -7 41 -9 43 -8 7 -45 12 -60 8z"/>
<path d="M1433 624 c-7 -3 -13 -23 -13 -44 0 -35 2 -38 34 -44 54 -10 67 0 64
48 -3 39 -5 41 -38 43 -19 1 -41 0 -47 -3z"/>
<path d="M918 613 c-10 -3 -17 -18 -20 -44 -4 -46 -3 -47 45 -53 42 -6 48 4
40 63 -6 42 -15 47 -65 34z"/>
<path d="M1313 513 c-20 -4 -23 -11 -23 -49 0 -51 11 -60 65 -50 34 7 35 8 35
51 0 32 -4 45 -14 45 -8 0 -20 2 -28 4 -7 2 -23 1 -35 -1z"/>
<path d="M1453 513 c-19 -4 -23 -11 -23 -44 0 -34 4 -41 27 -50 14 -5 32 -8
39 -5 8 3 16 1 19 -4 3 -4 -13 -11 -35 -15 l-40 -7 0 -49 c0 -42 3 -49 20 -49
11 0 20 -7 20 -15 0 -8 -9 -15 -20 -15 -22 0 -25 -15 -14 -69 4 -17 13 -31 20
-31 8 0 14 -7 14 -15 0 -8 -7 -15 -15 -15 -11 0 -15 -11 -15 -42 0 -78 7 -88
55 -88 41 0 43 1 49 35 4 20 5 39 2 44 -3 4 -6 25 -6 47 -1 21 -6 115 -12 207
-11 164 -12 169 -35 178 -14 5 -25 8 -26 8 -1 -1 -12 -4 -24 -6z"/>
<path d="M1567 513 c-2 -4 -2 -28 2 -52 5 -41 9 -44 36 -46 51 -3 66 11 63 58
l-3 42 -47 3 c-25 2 -48 -1 -51 -5z"/>
<path d="M1172 503 c-21 -4 -23 -9 -18 -45 3 -23 8 -43 11 -46 2 -3 23 -6 45
-8 l40 -3 0 55 c0 53 -1 54 -27 53 -16 -1 -38 -4 -51 -6z"/>
<path d="M938 492 l-38 -3 0 -48 c0 -54 15 -66 67 -52 25 7 27 11 24 52 -1 24
-6 46 -9 49 -4 3 -24 4 -44 2z"/>
<path d="M1025 490 c-6 -10 -1 -48 11 -93 3 -9 10 -15 15 -12 5 4 9 1 9 -4 0
-6 -4 -11 -10 -11 -5 0 -10 -25 -10 -55 0 -54 1 -55 28 -55 44 0 60 19 55 64
-4 27 -11 40 -24 43 -22 6 -26 33 -5 33 17 0 28 42 20 75 -5 21 -12 25 -44 25
-22 0 -42 -5 -45 -10z"/>
<path d="M2394 415 c-4 -10 -2 -38 5 -64 6 -25 11 -68 11 -96 0 -27 1 -96 2
-153 l2 -102 53 0 c47 0 53 2 53 20 0 13 -10 24 -27 31 -28 11 -28 11 -5 20
18 7 22 16 22 55 0 37 -4 47 -20 51 -24 6 -27 23 -4 23 12 0 14 10 12 53 -2
35 -7 51 -15 49 -7 -1 -13 5 -13 14 0 8 5 12 10 9 12 -7 13 64 2 83 -5 7 -25
15 -45 19 -29 4 -38 2 -43 -12z"/>
<path d="M1584 263 c3 -76 5 -166 6 -200 l0 -63 49 0 48 0 2 64 c1 52 -2 67
-15 74 -16 9 -16 11 -2 25 8 9 14 26 13 39 -1 13 -3 33 -4 46 0 12 -7 22 -16
22 -8 0 -15 4 -15 9 0 5 7 11 15 15 20 7 20 70 -1 90 -8 9 -31 16 -51 16 l-35
0 6 -137z"/>
<path d="M1300 333 c0 -58 3 -60 69 -47 28 6 31 10 31 45 0 44 -21 61 -70 57
-29 -2 -30 -3 -30 -55z"/>
<path d="M1177 373 c-15 -4 -17 -13 -15 -51 l3 -47 48 -1 47 -1 0 53 0 54 -32
-1 c-18 -1 -41 -3 -51 -6z"/>
<path d="M900 314 c0 -37 4 -47 20 -51 11 -3 20 -9 20 -13 0 -4 -9 -10 -20
-13 -14 -4 -20 -13 -20 -34 0 -55 10 -73 41 -73 37 0 38 -18 2 -22 -26 -3 -28
-6 -31 -56 l-3 -53 53 3 c46 3 53 5 50 23 -1 11 -3 64 -3 118 0 84 -2 97 -17
97 -16 1 -16 1 1 11 17 10 22 45 11 87 -6 19 -13 22 -55 22 l-49 0 0 -46z"/>
<path d="M1235 253 c-66 -12 -65 -11 -65 -58 0 -36 4 -45 18 -47 9 0 22 -2 27
-3 6 -2 16 -3 23 -4 27 -2 10 -20 -19 -19 -36 1 -49 -14 -49 -57 1 -47 21 -65
72 -65 l45 0 -3 43 c-2 23 -7 53 -10 67 -4 14 -6 50 -5 81 3 60 -2 68 -34 62z"/>
<path d="M1305 250 c-4 -6 -4 -31 0 -56 4 -32 11 -44 23 -44 16 -1 16 -2 0
-14 -22 -16 -24 -92 -4 -118 16 -22 66 -24 66 -3 0 8 7 15 16 15 14 0 15 7 10
38 -3 20 -6 42 -6 48 0 7 -9 14 -21 17 -23 6 -17 27 7 27 12 0 14 11 12 48
l-3 47 -47 3 c-26 2 -49 -2 -53 -8z"/>
<path d="M1063 243 c-21 -4 -22 -8 -20 -121 l2 -117 48 -1 c26 -1 50 2 52 6 3
5 2 29 -1 54 -5 36 -11 46 -25 46 -11 0 -19 7 -19 15 0 8 7 15 15 15 11 0 15
12 15 50 0 28 -4 50 -9 50 -5 0 -15 2 -23 4 -7 2 -23 1 -35 -1z"/>
<path d="M2926 194 c-10 -25 -7 -79 5 -91 7 -7 8 -17 2 -29 -5 -11 -9 -30 -9
-44 1 -23 5 -25 51 -25 49 0 50 1 50 30 0 25 -5 32 -32 40 -41 12 -43 25 -3
25 29 0 30 2 30 45 0 40 -3 47 -26 55 -37 14 -61 12 -68 -6z"/>
</g>
</svg>
